<svg width="9" height="6" viewBox="0 0 9 6" fill="none" xmlns="http://www.w3.org/2000/svg">
<path d="M8.99833 1.30357C8.99833 1.23661 8.96484 1.16127 8.91462 1.11105L8.49609 0.692522C8.44587 0.642299 8.37054 0.608817 8.30357 0.608817C8.23661 0.608817 8.16127 0.642299 8.11105 0.692522L4.82143 3.98214L1.53181 0.692522C1.48158 0.642299 1.40625 0.608817 1.33929 0.608817C1.26395 0.608817 1.19699 0.642299 1.14676 0.692522L0.728237 1.11105C0.678013 1.16127 0.644531 1.23661 0.644531 1.30357C0.644531 1.37054 0.678013 1.44587 0.728237 1.49609L4.62891 5.39676C4.67913 5.44699 4.75446 5.48047 4.82143 5.48047C4.88839 5.48047 4.96373 5.44699 5.01395 5.39676L8.91462 1.49609C8.96484 1.44587 8.99833 1.37054 8.99833 1.30357Z" fill="white"/>
</svg>
